<svg viewBox="0 0 1168 1024" version="1.1" xmlns="http://www.w3.org/2000/svg">
  <path 
    d="M254.272 388.336c8.096 0 11.552 2.32 17.328 4.624 23.44 11.712 260.24 256.768 261.2 257.728 5.264 5.264 8.096 16.512 8.096 26.576 0 10.096-2.8 21.296-8.096 26.576-0.96 0.96-237.76 246.016-261.2 257.728-4.624 2.32-10.4 4.624-16.176 4.624-20.544 0-27.696-5.744-38.144-16.176-9.392-9.392-11.552-13.456-11.552-32.368 0-11.552-1.152-12.72 2.32-19.648s9.248-13.872 109.792-114.416l106.336-106.336-106.336-106.336c-100.544-100.544-106.336-107.488-109.792-114.416s-2.32-8.096-2.32-19.648c0-18.976 2.112-22.928 11.552-32.368 9.712-9.712 17.52-16.176 36.992-16.176z m529.328 481.952c-123.664 0-156.032 0-159.488 1.152-19.344 9.664-34.672 19.648-34.672 49.696 0 24.256 20.128 36.112 35.824 45.072h153.712c137.536 0 154.864-1.152 160.656-2.32 18.688-6.224 33.52-19.056 33.52-45.072 0-29.088-14.256-38.64-34.672-47.392l-154.864-1.152z" 
    fill="white" 
    stroke="black" 
    stroke-width="20"
  ></path>
</svg>